<mxfile host="app.diagrams.net" modified="2023-09-21T15:32:36.247Z" agent="Mozilla/5.0 (X11; Ubuntu; Linux x86_64; rv:109.0) Gecko/20100101 Firefox/117.0" etag="tiDb1bnfscSRbSU3Sjhe" version="21.8.0" type="github">
  <diagram name="Página-1" id="0o0cwSJX1ofS0n3PZMZI">
    <mxGraphModel dx="1434" dy="746" grid="1" gridSize="10" guides="1" tooltips="1" connect="1" arrows="1" fold="1" page="1" pageScale="1" pageWidth="827" pageHeight="1169" math="0" shadow="0">
      <root>
        <mxCell id="0" />
        <mxCell id="1" parent="0" />
        <mxCell id="n_UcsMJR2gymIGOoylSS-2" value="" style="rounded=0;whiteSpace=wrap;html=1;" vertex="1" parent="1">
          <mxGeometry x="120" y="80" width="600" height="600" as="geometry" />
        </mxCell>
        <mxCell id="n_UcsMJR2gymIGOoylSS-3" value="" style="whiteSpace=wrap;html=1;aspect=fixed;" vertex="1" parent="1">
          <mxGeometry x="279" y="245" width="270" height="270" as="geometry" />
        </mxCell>
        <mxCell id="n_UcsMJR2gymIGOoylSS-4" value="Contraseña" style="rounded=0;whiteSpace=wrap;html=1;" vertex="1" parent="1">
          <mxGeometry x="354" y="410" width="120" height="30" as="geometry" />
        </mxCell>
        <mxCell id="n_UcsMJR2gymIGOoylSS-5" value="Nombre de usuario" style="rounded=0;whiteSpace=wrap;html=1;" vertex="1" parent="1">
          <mxGeometry x="354" y="360" width="120" height="30" as="geometry" />
        </mxCell>
        <mxCell id="n_UcsMJR2gymIGOoylSS-6" value="Nombre de la marca" style="rounded=0;whiteSpace=wrap;html=1;" vertex="1" parent="1">
          <mxGeometry x="354" y="290" width="120" height="30" as="geometry" />
        </mxCell>
        <mxCell id="n_UcsMJR2gymIGOoylSS-7" value="" style="rounded=0;whiteSpace=wrap;html=1;" vertex="1" parent="1">
          <mxGeometry x="120" y="80" width="600" height="60" as="geometry" />
        </mxCell>
        <mxCell id="n_UcsMJR2gymIGOoylSS-10" value="Despliegable de opciones" style="rounded=0;whiteSpace=wrap;html=1;" vertex="1" parent="1">
          <mxGeometry x="120" y="80" width="80" height="60" as="geometry" />
        </mxCell>
        <mxCell id="n_UcsMJR2gymIGOoylSS-11" value="Barra de busqueda" style="rounded=0;whiteSpace=wrap;html=1;" vertex="1" parent="1">
          <mxGeometry x="311" y="95" width="206" height="30" as="geometry" />
        </mxCell>
      </root>
    </mxGraphModel>
  </diagram>
</mxfile>
